<svg xmlns="http://www.w3.org/2000/svg" xmlns:xlink="http://www.w3.org/1999/xlink" viewBox="0 0 545.89 145.35"><defs><style>.cls-1{fill:none;}.cls-2{clip-path:url(#clip-path);}.cls-3{fill:#fff;}.cls-4{fill:#f2c921;}</style><clipPath id="clip-path" transform="translate(-22.3 -20.44)"><rect class="cls-1" width="599.59" height="184.86"/></clipPath></defs><title>STD01Asset 13</title><g id="Layer_2" data-name="Layer 2"><g id="Layer_1-2" data-name="Layer 1"><g class="cls-2"><path class="cls-3" d="M190.53,165.79q-15.87,0-27.32-6.26a42.27,42.27,0,0,1-17.54-17.91q-6.09-11.62-6.09-27.77,0-15.6,6.13-27.28A44.73,44.73,0,0,1,163,68.35q11.17-6.54,26.33-6.54a55.54,55.54,0,0,1,19.7,3.38,43.35,43.35,0,0,1,15.52,9.92,44.48,44.48,0,0,1,10.1,16.1,63.24,63.24,0,0,1,3.56,22.1v7.93H150.67V102.76H223l-15,4.32A30.36,30.36,0,0,0,206,95.22a16.69,16.69,0,0,0-6.13-7.62,17.85,17.85,0,0,0-10.1-2.7,18.27,18.27,0,0,0-10.19,2.7,17.12,17.12,0,0,0-6.31,7.53,27.62,27.62,0,0,0-2.17,11.41V119.8A27.76,27.76,0,0,0,173.53,132a18.26,18.26,0,0,0,7,7.9,19.94,19.94,0,0,0,10.5,2.75,23.09,23.09,0,0,0,7.58-1.18,15.79,15.79,0,0,0,5.86-3.47,15.12,15.12,0,0,0,3.7-5.54l29.4.81a36.46,36.46,0,0,1-7.94,17.22,40.13,40.13,0,0,1-16,11.32Q203.69,165.8,190.53,165.79Z" transform="translate(-22.3 -20.44)"/><path class="cls-3" d="M78.52,165.71q-16.9,0-29.46-5.11a42,42,0,0,1-19.57-15.46q-7-10.35-7.19-26.08H53.39A21,21,0,0,0,57,129.87a19.43,19.43,0,0,0,8.5,6.64,32.34,32.34,0,0,0,12.61,2.26A31.09,31.09,0,0,0,89.33,137a16.63,16.63,0,0,0,7.18-5A11.37,11.37,0,0,0,99,124.67a9.4,9.4,0,0,0-2.35-6.46,19.47,19.47,0,0,0-7.09-4.7,69.36,69.36,0,0,0-12.16-3.67l-14.19-3.25q-17.36-4-27.39-13t-10-24.45A36.43,36.43,0,0,1,32.6,47.29,44.55,44.55,0,0,1,51.27,32.65q11.88-5.25,27.25-5.24,15.65,0,27.21,5.28a41.62,41.62,0,0,1,17.9,14.83,40.11,40.11,0,0,1,6.51,22.1H98.86a14.9,14.9,0,0,0-5.74-11.25q-5.19-4-14.69-4A29.3,29.3,0,0,0,67.9,56a13.65,13.65,0,0,0-6.32,4.52A10.71,10.71,0,0,0,59.45,67a10.19,10.19,0,0,0,2.35,6.78,17.78,17.78,0,0,0,6.83,4.7,61.54,61.54,0,0,0,10.53,3.25l11.48,2.62a83,83,0,0,1,17.62,5.79,49.19,49.19,0,0,1,13,8.59,32.87,32.87,0,0,1,8,11.48A37.43,37.43,0,0,1,132,124.76q0,12.84-6.38,22t-18.3,14.06Q95.33,165.71,78.52,165.71Z" transform="translate(-22.3 -20.44)"/><path class="cls-4" d="M179.55,51.07h21.6L220.41,22.5H192Z" transform="translate(-22.3 -20.44)"/><path class="cls-3" d="M306.32,62.84V86.61H242.68V62.84ZM256,38.79h32.09v93.29c0,2.71.66,4.75,2,6.1s3.41,2,6.24,2a21.71,21.71,0,0,0,3.75-.37,27.36,27.36,0,0,0,3.3-.72l4.79,23.32A77.32,77.32,0,0,1,298,164.67a63.82,63.82,0,0,1-9.17.68q-16.1,0-24.5-7.64t-8.4-22Z" transform="translate(-22.3 -20.44)"/><path class="cls-3" d="M363.9,165.8q-15.91,0-27.39-6.28a42.34,42.34,0,0,1-17.58-18q-6.1-11.65-6.11-27.84,0-15.63,6.15-27.34a44.8,44.8,0,0,1,17.36-18.26q11.21-6.55,26.39-6.56A55.56,55.56,0,0,1,382.47,65a43.27,43.27,0,0,1,15.55,10A44.29,44.29,0,0,1,408.14,91a63.25,63.25,0,0,1,3.57,22.15v8H323.94V102.61h72.5l-15,4.34a30.48,30.48,0,0,0-2.08-11.89,16.64,16.64,0,0,0-6.14-7.63,17.86,17.86,0,0,0-10.13-2.72,18.29,18.29,0,0,0-10.21,2.72A17.15,17.15,0,0,0,346.54,95a27.73,27.73,0,0,0-2.17,11.44V119.7a27.75,27.75,0,0,0,2.49,12.2,18.13,18.13,0,0,0,7.05,7.91,19.93,19.93,0,0,0,10.53,2.76,23.42,23.42,0,0,0,7.59-1.18,15.9,15.9,0,0,0,5.88-3.48,15.08,15.08,0,0,0,3.7-5.56l29.47.82a36.43,36.43,0,0,1-7.95,17.26A40.36,40.36,0,0,1,387,161.78,61.48,61.48,0,0,1,363.9,165.8Z" transform="translate(-22.3 -20.44)"/><path class="cls-3" d="M459.26,165.35A37.24,37.24,0,0,1,439,159.56q-9.18-5.79-14.6-17.35T419,113.46q0-17.8,5.65-29.29t14.78-17a37.24,37.24,0,0,1,19.7-5.56,31.22,31.22,0,0,1,13.61,2.72,28.33,28.33,0,0,1,9.35,7,32.8,32.8,0,0,1,5.61,8.91h.63v-51h32.18V163.9H488.73V147.45h-1.08a32.86,32.86,0,0,1-5.79,8.77,27.82,27.82,0,0,1-9.31,6.59A32.06,32.06,0,0,1,459.26,165.35Zm11.12-25a15.49,15.49,0,0,0,10-3.35,21.18,21.18,0,0,0,6.42-9.35,40.12,40.12,0,0,0,2.26-14.15,41.7,41.7,0,0,0-2.21-14.33,20.24,20.24,0,0,0-6.42-9.26,16,16,0,0,0-10.08-3.26,15.49,15.49,0,0,0-10,3.35,20.35,20.35,0,0,0-6.29,9.35,42.7,42.7,0,0,0-2.12,14.15,41.69,41.69,0,0,0,2.17,14.1,20.83,20.83,0,0,0,6.28,9.4A15.32,15.32,0,0,0,470.38,140.31Z" transform="translate(-22.3 -20.44)"/><path class="cls-3" d="M551.64,51.27A16.59,16.59,0,0,1,540,46.75a14.38,14.38,0,0,1-4.88-10.94A14.23,14.23,0,0,1,540,24.92a17.48,17.48,0,0,1,23.37,0,14.29,14.29,0,0,1,4.84,10.89,14.44,14.44,0,0,1-4.84,10.94A16.54,16.54,0,0,1,551.64,51.27Zm-16,112.63V62.84h32.18V163.9Z" transform="translate(-22.3 -20.44)"/></g></g></g></svg>