<svg xmlns="http://www.w3.org/2000/svg" xmlns:xlink="http://www.w3.org/1999/xlink" viewBox="0 0 117.74 25.47"><defs><style>.cls-1{fill:url(#linear-gradient);}.cls-2{fill:url(#linear-gradient-2);}.cls-3{fill:url(#linear-gradient-3);}.cls-4{fill:url(#linear-gradient-4);}.cls-5{fill:url(#linear-gradient-5);}.cls-6{fill:url(#linear-gradient-6);}.cls-7{fill:url(#linear-gradient-7);}</style><linearGradient id="linear-gradient" x1="8.42" y1="25.45" x2="8.42" y2="7.36" gradientUnits="userSpaceOnUse"><stop offset="0" stop-color="#b6794b"/><stop offset="0.73" stop-color="#faf7e1"/><stop offset="1" stop-color="#8e604d"/></linearGradient><linearGradient id="linear-gradient-2" x1="115.78" y1="24.89" x2="115.78" y2="7.82" xlink:href="#linear-gradient"/><linearGradient id="linear-gradient-3" x1="74.37" y1="25.44" x2="74.37" y2="7.31" xlink:href="#linear-gradient"/><linearGradient id="linear-gradient-4" x1="52.07" y1="25" x2="52.07" y2="7.17" xlink:href="#linear-gradient"/><linearGradient id="linear-gradient-5" x1="30.58" y1="25.47" x2="30.58" y2="7.34" xlink:href="#linear-gradient"/><linearGradient id="linear-gradient-6" x1="97.63" y1="24.97" x2="97.63" y2="7.75" xlink:href="#linear-gradient"/><linearGradient id="linear-gradient-7" x1="31.07" y1="4.74" x2="31.07" y2="0" xlink:href="#linear-gradient"/></defs><title>logoAsset 3</title><g id="Layer_2" data-name="Layer 2"><g id="Layer_1-2" data-name="Layer 1"><path class="cls-1" d="M14.87,12.09l.63-2.88-2.66-.89a19,19,0,0,0-2-.61,13.94,13.94,0,0,0-2.63-.34,11.1,11.1,0,0,0-3,.3,9.64,9.64,0,0,0-3,1.2,4.24,4.24,0,0,0-1.37,1.4,3.87,3.87,0,0,0-.49,1.41,3.43,3.43,0,0,0,.07,1.53,3.73,3.73,0,0,0,1.09,1.73,6.85,6.85,0,0,0,2.34,1.14A10.43,10.43,0,0,0,5,16.46c1.24.37,1.69.43,3.32.85.15,0,1,.25,2.07.57a8.8,8.8,0,0,1,2,.71A3,3,0,0,1,13.85,20,2.57,2.57,0,0,1,14,21.54a3.57,3.57,0,0,1-.66,1.52,4.08,4.08,0,0,1-1.54,1.34,5.09,5.09,0,0,1-1.44.4,8.83,8.83,0,0,1-2.87-.07,10.32,10.32,0,0,1-3.52-1,9.1,9.1,0,0,1-3.25-3L0,23.3c.5.24,1.2.56,2.05.91a15.22,15.22,0,0,0,2.69.93,17.37,17.37,0,0,0,2.73.25,17,17,0,0,0,2.56,0,9.43,9.43,0,0,0,2.3-.38,7.87,7.87,0,0,0,2.48-1.29,5.13,5.13,0,0,0,1.63-1.82,3.78,3.78,0,0,0,.4-1.69,3.63,3.63,0,0,0-.43-1.61,5.62,5.62,0,0,0-3.19-2.41,17.07,17.07,0,0,0-2-.61c-1.57-.44-2-.49-4.19-1.06a9.23,9.23,0,0,1-3.23-1.23A2.24,2.24,0,0,1,3,12.11a2.91,2.91,0,0,1,0-1.55A2,2,0,0,1,4,9.24a6.37,6.37,0,0,1,1.69-.79,6.94,6.94,0,0,1,2.45-.37,6,6,0,0,1,2.72.5A7.89,7.89,0,0,1,13.2,10,6.81,6.81,0,0,1,14.87,12.09Z"/><polygon class="cls-2" points="117.09 8.62 117.74 7.82 117.09 7.82 116.45 7.82 115.12 7.82 114.47 7.82 113.83 7.82 114.47 8.62 114.47 24.09 113.83 24.89 114.47 24.89 115.12 24.89 116.45 24.89 117.09 24.89 117.74 24.89 117.09 24.09 117.09 8.62"/><polygon class="cls-3" points="81.35 24.15 79.89 24.15 70.02 24.15 70.02 16.05 76.81 16.05 78.26 16.05 78.89 16.55 78.89 16.05 78.89 15.26 78.89 14.76 78.26 15.26 76.81 15.26 70.02 15.26 70.02 8.6 79 8.6 80.46 8.6 81.09 9.11 81.09 8.6 81.09 7.82 81.09 7.31 80.46 7.82 79 7.82 70.02 7.82 68.04 7.82 67.55 7.82 67.4 7.82 66.75 7.82 67.4 8.62 67.4 15.26 67.4 16.05 67.4 24.17 66.75 24.97 67.4 24.97 68.04 24.97 68.44 24.97 70.02 24.97 81.4 24.97 81.98 25.44 81.98 24.97 81.98 24.93 81.98 24.15 81.98 23.64 81.35 24.15"/><polygon class="cls-4" points="60.09 7.82 58.8 7.82 43.96 7.82 43.24 7.24 43.24 7.82 43.24 7.89 43.24 8.04 43.24 8.46 43.24 8.53 43.24 8.6 43.24 9.18 43.96 8.6 50.69 8.6 50.69 24.06 49.94 25 50.69 25 51.23 25 52.8 25 53.33 25 54.09 25 53.33 24.06 53.33 8.6 60.26 8.6 60.89 9.11 60.89 8.6 60.89 8.46 60.89 8.43 60.89 8.04 60.89 7.82 60.89 7.17 60.09 7.82"/><polygon class="cls-5" points="37.56 24.18 36.11 24.18 26.23 24.18 26.23 16.08 33.02 16.08 34.48 16.08 35.11 16.59 35.11 16.08 35.11 15.3 35.11 14.79 34.48 15.3 33.02 15.3 26.23 15.3 26.23 8.63 35.22 8.63 36.67 8.63 37.31 9.14 37.31 8.63 37.31 7.85 37.31 7.34 36.67 7.85 35.22 7.85 26.23 7.85 24.25 7.85 23.77 7.85 23.61 7.85 22.96 7.85 23.61 8.65 23.61 15.3 23.61 16.08 23.61 24.2 22.96 25 23.61 25 24.25 25 24.66 25 26.23 25 37.62 25 38.2 25.47 38.2 25 38.2 24.96 38.2 24.18 38.2 23.67 37.56 24.18"/><path class="cls-6" d="M107.2,16.86a9.92,9.92,0,0,0-.18-2.12,8.09,8.09,0,0,0-2.57-4.18A9.28,9.28,0,0,0,98,7.84,50.26,50.26,0,0,0,93,7.8H88.05l.76.94V24l-.76.95h1.66a84.29,84.29,0,0,0,8.85-.22c1.1-.11,5-1,6.88-3.24a7.86,7.86,0,0,0,1.64-3.2A4.87,4.87,0,0,0,107.2,16.86Zm-3.36,1.94a6,6,0,0,1-1.77,3.29A8.07,8.07,0,0,1,98,23.92a13,13,0,0,1-1.71.25H91.43V8.59c1.58,0,4,.07,5.66.23.63.06,3.79.35,5.55,2.79A8.92,8.92,0,0,1,104,15.2,10.87,10.87,0,0,1,103.84,18.8Z"/><path class="cls-7" d="M25.06,4.74h.38c1.83-.4,3.32-.69,4.34-.87s2.3-.52,3.46-.68c.81-.12,1.59-.42,2.39-.56a4,4,0,0,0,1.23-.57.49.49,0,0,0,.27-.32.34.34,0,0,0-.07-.24c-.11-.15-.19-.21-.27-.34a1,1,0,0,1-.14-.37A2.47,2.47,0,0,0,36.33,0s0,0,0,0L36.2.05,30.55,2.59q-2,.62-4.14,1.44c-.46.18-.95.37-1.39.56A.2.2,0,0,0,25.06,4.74Z"/></g></g></svg>