<svg xmlns="http://www.w3.org/2000/svg" xmlns:xlink="http://www.w3.org/1999/xlink" viewBox="0 0 61.07 13.24"><defs><style>.cls-1{fill:url(#linear-gradient);}.cls-2{fill:url(#linear-gradient-2);}.cls-3{fill:url(#linear-gradient-3);}.cls-4{fill:url(#linear-gradient-4);}.cls-5{fill:url(#linear-gradient-5);}.cls-6{fill:url(#linear-gradient-6);}.cls-7{fill:url(#linear-gradient-7);}.cls-8{fill:url(#linear-gradient-8);}.cls-9{fill:url(#linear-gradient-9);}.cls-10{fill:url(#linear-gradient-10);}</style><linearGradient id="linear-gradient" x1="50.8" y1="12.94" x2="50.8" y2="3.91" gradientUnits="userSpaceOnUse"><stop offset="0" stop-color="#b6794b"/><stop offset="0.73" stop-color="#faf7e1"/><stop offset="1" stop-color="#8e604d"/></linearGradient><linearGradient id="linear-gradient-2" x1="4.34" y1="12.97" x2="4.34" y2="3.74" xlink:href="#linear-gradient"/><linearGradient id="linear-gradient-3" x1="15.91" y1="13.24" x2="15.91" y2="3.59" xlink:href="#linear-gradient"/><linearGradient id="linear-gradient-4" x1="38.26" y1="12.92" x2="38.26" y2="3.88" xlink:href="#linear-gradient"/><linearGradient id="linear-gradient-5" x1="60.1" y1="12.94" x2="60.1" y2="3.95" xlink:href="#linear-gradient"/><linearGradient id="linear-gradient-6" x1="28.8" y1="12.9" x2="28.8" y2="3.64" xlink:href="#linear-gradient"/><linearGradient id="linear-gradient-7" x1="16.15" y1="2.46" x2="16.15" y2="0" xlink:href="#linear-gradient"/><linearGradient id="linear-gradient-8" x1="23.28" y1="4.71" x2="23.28" y2="3.72" xlink:href="#linear-gradient"/><linearGradient id="linear-gradient-9" x1="42.11" y1="13.02" x2="42.11" y2="11.79" xlink:href="#linear-gradient"/><linearGradient id="linear-gradient-10" x1="25.33" y1="4.36" x2="25.33" y2="4.07" xlink:href="#linear-gradient"/></defs><title>logoAsset 1</title><g id="Layer_2" data-name="Layer 2"><g id="Layer_1-2" data-name="Layer 1"><path class="cls-1" d="M53.22,12.28a1.7,1.7,0,0,1-.22.15,4,4,0,0,1-1.41.29c-.05,0-.09,0-.12,0-.2,0-.4.09-.6.11a32.74,32.74,0,0,1-3.57.1H45.68c0-.07,0-.14.08-.15.27-.12.28-.38.3-.6s0-.66,0-1a5.25,5.25,0,0,1,0-.56c0-.09,0-.19,0-.28,0-.36,0-.71,0-1.07s0-.54,0-.81,0-.39,0-.58c0-.5,0-1,0-1.51s0-.85,0-1.27c0-.09.07-.2.05-.28a4.67,4.67,0,0,0-.18-.64c0-.07-.12-.1-.17-.16s0-.07,0-.11h.05l0,.16c.09-.19.23-.13.37-.13.6,0,1.2,0,1.8,0h1.63l1.15,0a2.55,2.55,0,0,1,.55.11,3.21,3.21,0,0,0,.62.1c.13,0,.24,0,.26.18h.21l.05-.1s0,.07.06.09a1.35,1.35,0,0,0,.41.18,1.1,1.1,0,0,1,.53.26,2.7,2.7,0,0,0,.4.25L54,4.9l.11.25c.08,0,.26-.07.24.11a2.08,2.08,0,0,1,.39.29,4.14,4.14,0,0,1,1.07,1.62,4.31,4.31,0,0,1,0,2.2,4,4,0,0,1-1.47,2.35,6,6,0,0,1-1,.56S53.25,12.28,53.22,12.28Zm1-4.67h0A3.81,3.81,0,0,0,53.72,6,2.7,2.7,0,0,0,53,5.3a4.48,4.48,0,0,0-.84-.51c-.14-.07-.33,0-.46-.12a1,1,0,0,0-.39-.16c-.34-.06-.68-.1-1-.13s-.57,0-.85-.06l-1-.06h-1c0,.13,0,.21,0,.3q0,3.85,0,7.73c0,.17.06.23.23.23.61,0,1.23,0,1.85,0,.37,0,.75,0,1.12-.06.2,0,.39-.09.58-.09a1.14,1.14,0,0,0,.45-.06,4.47,4.47,0,0,0,1.55-.9A3,3,0,0,0,54,10.36a4.44,4.44,0,0,0,.32-2.1C54.27,8,54.22,7.83,54.19,7.61Z"/><path class="cls-2" d="M2.28,4,2.16,4a.48.48,0,0,0,.57-.09c.06-.07.18-.08.27-.12l0,0-.09,0v0l.4-.08a1.33,1.33,0,0,1,.34-.1c.59,0,1.19,0,1.78.09A3.23,3.23,0,0,1,6.1,4l1.31.42a2.13,2.13,0,0,0,.42.1c.14,0,.17.07.14.2-.08.35-.17.71-.25,1.07,0,.08,0,.16,0,.27a1.38,1.38,0,0,1-.23-.27A3.16,3.16,0,0,0,5.29,4.23a5.47,5.47,0,0,0-1.8-.08,2.89,2.89,0,0,0-1.34.48,1.38,1.38,0,0,0-.59,1.43,1.18,1.18,0,0,0,.77.85c.33.14.68.25,1,.36l1.28.34c.69.18,1.4.34,2.09.55a6.13,6.13,0,0,1,.89.44A2.74,2.74,0,0,1,8,8.83a1.91,1.91,0,0,1,.59,2.08,2.62,2.62,0,0,1-.93,1.18A4.28,4.28,0,0,1,4.93,13c-.72,0-1.44,0-2.15-.1a5.76,5.76,0,0,1-1.25-.37c-.47-.17-.93-.39-1.4-.57-.12,0-.15-.1-.12-.22l.14-.56A1.18,1.18,0,0,1,.25,11s0-.07,0-.08,0-.21.07-.33l0,.18c.12.1.21.17.3.26s.26.3.41.42.49.32.72.5a4.22,4.22,0,0,0,1.73.7,2.56,2.56,0,0,0,.56,0s.09,0,.11,0l.41,0s0,.08.06.13.2-.27.37-.07l0,.07v0l.27-.09-.13-.1a2.17,2.17,0,0,0,1.26-.4c.12-.07.19-.22.3-.32a1.62,1.62,0,0,0,.49-1.05,1.17,1.17,0,0,0-.32-1.08,1.83,1.83,0,0,0-.5-.31A12.29,12.29,0,0,0,4,8.74a16.07,16.07,0,0,1-1.68-.47,4,4,0,0,1-.91-.37,5,5,0,0,1-.84-.61A1.36,1.36,0,0,1,.16,6.1,1.8,1.8,0,0,1,.75,4.78l.3-.24a4.26,4.26,0,0,1,.5-.32,7.37,7.37,0,0,1,.7-.3Zm3.07,8.71,0,0,.15.2.07-.15Z"/><path class="cls-3" d="M13.73,12.46h4.74a4.21,4.21,0,0,0,.5,0,.88.88,0,0,0,.56-.27,1.41,1.41,0,0,1,.29-.25l.05,0v1.24a.36.36,0,0,0-.07-.1.72.72,0,0,0-.49-.22c-1.19,0-2.39,0-3.59,0a13.63,13.63,0,0,1-2.12-.1,4.85,4.85,0,0,0-.66,0l0-.12-.27,0a.13.13,0,0,0-.11,0c-.11.15-.21.11-.32,0l-.2.21-.05,0a.5.5,0,0,1,.11-.19.43.43,0,0,0,.17-.36c0-1.71,0-3.41,0-5.12l0-2.61a3.53,3.53,0,0,0,0-.46s-.06-.08-.1-.15a1.13,1.13,0,0,1,.55,0,.67.67,0,0,0,.2,0l.25,0a.55.55,0,0,1,.18,0c.08,0,.16,0,.24.08s.23.06.35.08l0-.08-.12,0,0,0h.08c.6,0,1.2,0,1.8,0l1.35,0,.87,0c.39,0,.78,0,1.17-.07a1.38,1.38,0,0,0,.22-.1l.3-.17V4.88l-.68-.51h0V4.31c-.26,0-.51,0-.76,0H14.35c-.17,0-.33,0-.49,0s-.15,0-.15.13c0,1.07,0,2.14,0,3.21,0,.14,0,.18.19.18h1.44v0l-1.53.05v.07h1.61l1.83,0q.36,0,.72,0c.23,0,.3.05.25.27.27.1.09.33.16.49l0,0s-.1,0-.11-.06a.58.58,0,0,0-.63-.36c-1.23,0-2.46,0-3.69,0-.17,0-.23,0-.23.22,0,1.26,0,2.52,0,3.78A1.54,1.54,0,0,0,13.73,12.46ZM12.3,8.62h0A24.56,24.56,0,0,0,12.3,5Zm.08.49a8.58,8.58,0,0,0,0,2.32Z"/><path class="cls-4" d="M36.3,7.92h4.21a1.55,1.55,0,0,1,.23.05l0,.36.09.19,0,0-.4-.25a.22.22,0,0,0-.11,0l-3.54,0h-.45v3.93c0,.24,0,.24.25.25.1,0,.22,0,.28.1l-.19.05c.24.12.48-.19.64,0a2.36,2.36,0,0,1,.87-.06,3.37,3.37,0,0,0,.55,0c.35,0,.7,0,1,0a3.2,3.2,0,0,0,.54-.08h0c.32.08.62-.16.93-.07l-.25,0c.07.06.13.09.14.14s0,.07-.1.13c-.13-.24-.26-.07-.44,0,.21.08.35.17.55.08a.35.35,0,0,1,.39.09c-2.34,0-4.67,0-7.07,0,.07-.05.12-.1.13-.09s.2,0,.28-.07.06,0,.12,0l-.19-.21c.18-.13.15-.34.15-.54,0-1.27,0-2.54,0-3.81V4.75c0-.23-.05-.46-.08-.71.19,0,.41-.07.64-.09.07,0,.15.06.23.09,0-.16.15-.09.26-.09h3.37c.33,0,.66,0,1,0s.4,0,.6,0a2.19,2.19,0,0,1,.36,0s.05.07.08.11l.5-.24a1.84,1.84,0,0,1,.13.76,1.2,1.2,0,0,0-.31-.22,2.11,2.11,0,0,0-.6-.11c-1.48,0-3,0-4.45,0-.46,0-.37,0-.37.37,0,1,0,2,0,3Z"/><path class="cls-5" d="M59.27,12.73a2.43,2.43,0,0,0,.09-.3,2.58,2.58,0,0,0,0-.38c0-.31,0-.62,0-.92V7.47c0-.73,0-1.47,0-2.2,0-.22,0-.43,0-.65s0-.38-.21-.47c0,0-.05-.07-.08-.12A1.94,1.94,0,0,1,60,4h.75l.18,0s0,0,0,.07a3.62,3.62,0,0,0-.09,1.31c0,2.28,0,4.57,0,6.86a1,1,0,0,0,.2.57s0,.12,0,.18l-.12,0s0,0,0,0c-.26,0-.51,0-.77,0s-.24.07-.36.09a4.51,4.51,0,0,1-.52,0l-.13,0C59.12,12.78,59.12,12.69,59.27,12.73Z"/><path class="cls-6" d="M26.33,4.5c.15-.1.36-.06.37-.28a1.68,1.68,0,0,0,.71-.09v0l.1.07A.37.37,0,0,1,28,4c.07,0,.22,0,.19.15,0,0,.08,0,.1,0a.3.3,0,0,1,.4,0c.06,0,.11.06.16,0A1,1,0,0,1,29.2,4c.44,0,.88,0,1.33,0a3.94,3.94,0,0,0,.58-.06.85.85,0,0,0,.25-.13,1.38,1.38,0,0,0,.22-.13V4.82c-.19-.14-.27-.38-.53-.31.13-.16,0-.18-.08-.19l-.53,0c-.93,0-1.86,0-2.79,0l0,0v.29c0,.61,0,1.21,0,1.82v3.85c0,.68,0,1.36,0,2,0,.11,0,.21.14.25a.13.13,0,0,1,.07.09c0,.08,0,.16,0,.26h0c-.11,0-.24.1-.3-.06l-1,0c-.15,0-.3,0-.44,0s-.16-.15-.08-.2c.27-.15.26-.39.26-.65,0-.88,0-1.77,0-2.66a5,5,0,0,0-.11-.66,1,1,0,0,1,0-.68,1.07,1.07,0,0,0,.05-.32h-.05l-.09.29h0l0-.37.15,0V6.16h0L26.16,7V5.42c.05.17-.06.37.17.49Z"/><path class="cls-7" d="M13,2.4c.22-.09.43-.19.66-.27l1.51-.5a6.29,6.29,0,0,1,.62-.17c.08,0,.1-.09.18-.12.65-.26,1.28-.55,1.92-.84.33-.15.64-.33,1-.5.05.11.11.22.16.34s.06.29.2.4.07.25-.09.34a4.49,4.49,0,0,1-1.36.47l-3.51.71-1,.19H13Z"/><path class="cls-8" d="M24.16,4l-.32.17.21.07v0H23l-.42,0v.06h.09c0,.24-.12.35-.3.33v-1l.31.15a1.42,1.42,0,0,0,.35.11C23.25,4,24,4,24.16,4Z"/><path class="cls-9" d="M41.66,12.89l0-.43a1.87,1.87,0,0,0,.52-.17,1.78,1.78,0,0,0,.37-.4l0,0,0-.15h0c0,.39,0,.77-.09,1.14,0,0-.1.09-.15.09l-.57-.16A.25.25,0,0,0,41.66,12.89Z"/><path class="cls-10" d="M24.21,4.27c.17,0,.37-.13.57-.18a1.78,1.78,0,0,1,.46,0,1.72,1.72,0,0,1,.56,0c.14,0,.25,0,.35,0s.2.14.3.21l-.06.05A.54.54,0,0,0,26,4.27c-.49,0-1,0-1.46,0Z"/></g></g></svg>